<svg width="40" height="40" viewBox="0 0 40 40" fill="none" xmlns="http://www.w3.org/2000/svg">
<path fill-rule="evenodd" clip-rule="evenodd" d="M8.82116 8.82165C9.47204 8.17078 10.5273 8.17078 11.1782 8.82165L19.9997 17.6431L28.8212 8.82165C29.472 8.17078 30.5273 8.17078 31.1782 8.82165C31.8291 9.47253 31.8291 10.5278 31.1782 11.1787L22.3567 20.0002L31.1782 28.8217C31.8291 29.4725 31.8291 30.5278 31.1782 31.1787C30.5273 31.8295 29.472 31.8295 28.8212 31.1787L19.9997 22.3572L11.1782 31.1787C10.5273 31.8295 9.47204 31.8295 8.82116 31.1787C8.17029 30.5278 8.17029 29.4725 8.82116 28.8217L17.6427 20.0002L8.82116 11.1787C8.17029 10.5278 8.17029 9.47253 8.82116 8.82165Z" fill="#0F1114"/>
</svg>
