<svg width="40" height="40" viewBox="0 0 40 40" fill="none" xmlns="http://www.w3.org/2000/svg">
<rect width="40" height="40" rx="2" fill="#FCFCFD"/>
<path d="M8.33366 8.75C7.41318 8.75 6.66699 9.49619 6.66699 10.4167C6.66699 11.3371 7.41318 12.0833 8.33366 12.0833H31.667C32.5875 12.0833 33.3337 11.3371 33.3337 10.4167C33.3337 9.49619 32.5875 8.75 31.667 8.75H8.33366Z" fill="#0F1114"/>
<path d="M8.33366 18.75C7.41318 18.75 6.66699 19.4962 6.66699 20.4167C6.66699 21.3371 7.41318 22.0833 8.33366 22.0833H31.667C32.5875 22.0833 33.3337 21.3371 33.3337 20.4167C33.3337 19.4962 32.5875 18.75 31.667 18.75H8.33366Z" fill="#0F1114"/>
<path d="M8.33366 29.1669C7.41318 29.1669 6.66699 29.9131 6.66699 30.8335C6.66699 31.754 7.41318 32.5002 8.33366 32.5002H31.667C32.5875 32.5002 33.3337 31.754 33.3337 30.8335C33.3337 29.9131 32.5875 29.1669 31.667 29.1669H8.33366Z" fill="#0F1114"/>
</svg>
