<svg width="64" height="65" viewBox="0 0 64 65" fill="none" xmlns="http://www.w3.org/2000/svg">
<rect y="0.5" width="64" height="64" rx="32" fill="#08080C"/>
<path d="M43.4204 31.08L33.4204 21.08C33.2302 20.898 33.0059 20.7552 32.7604 20.66C32.2734 20.46 31.7273 20.46 31.2404 20.66C30.9949 20.7552 30.7706 20.898 30.5804 21.08L20.5804 31.08C20.3939 31.2665 20.246 31.4879 20.1451 31.7315C20.0441 31.9752 19.9922 32.2363 19.9922 32.5C19.9922 33.0326 20.2038 33.5434 20.5804 33.92C20.957 34.2966 21.4678 34.5082 22.0004 34.5082C22.533 34.5082 23.0438 34.2966 23.4204 33.92L30.0004 27.32V42.5C30.0004 43.0305 30.2111 43.5392 30.5862 43.9143C30.9612 44.2893 31.4699 44.5 32.0004 44.5C32.5308 44.5 33.0395 44.2893 33.4146 43.9143C33.7897 43.5392 34.0004 43.0305 34.0004 42.5V27.32L40.5804 33.92C40.7663 34.1075 40.9875 34.2563 41.2312 34.3578C41.4749 34.4594 41.7363 34.5116 42.0004 34.5116C42.2644 34.5116 42.5258 34.4594 42.7695 34.3578C43.0132 34.2563 43.2344 34.1075 43.4204 33.92C43.6078 33.7341 43.7566 33.5129 43.8582 33.2692C43.9597 33.0255 44.012 32.7641 44.012 32.5C44.012 32.236 43.9597 31.9746 43.8582 31.7309C43.7566 31.4872 43.6078 31.266 43.4204 31.08Z" fill="#FAFAFA"/>
</svg>
