<svg width="44" height="44" viewBox="0 0 44 44" fill="none" xmlns="http://www.w3.org/2000/svg">
<rect width="44" height="44" rx="22" fill="#FDFDFD"/>
<path d="M18 22C18 22.2652 18.1054 22.5196 18.2929 22.7071C18.4804 22.8946 18.7348 23 19 23H25C25.2652 23 25.5196 22.8946 25.7071 22.7071C25.8946 22.5196 26 22.2652 26 22C26 21.7348 25.8946 21.4804 25.7071 21.2929C25.5196 21.1054 25.2652 21 25 21H19C18.7348 21 18.4804 21.1054 18.2929 21.2929C18.1054 21.4804 18 21.7348 18 22ZM20 25H17C16.2044 25 15.4413 24.6839 14.8787 24.1213C14.3161 23.5587 14 22.7956 14 22C14 21.2044 14.3161 20.4413 14.8787 19.8787C15.4413 19.3161 16.2044 19 17 19H20C20.2652 19 20.5196 18.8946 20.7071 18.7071C20.8946 18.5196 21 18.2652 21 18C21 17.7348 20.8946 17.4804 20.7071 17.2929C20.5196 17.1054 20.2652 17 20 17H17C15.6739 17 14.4021 17.5268 13.4645 18.4645C12.5268 19.4021 12 20.6739 12 22C12 23.3261 12.5268 24.5979 13.4645 25.5355C14.4021 26.4732 15.6739 27 17 27H20C20.2652 27 20.5196 26.8946 20.7071 26.7071C20.8946 26.5196 21 26.2652 21 26C21 25.7348 20.8946 25.4804 20.7071 25.2929C20.5196 25.1054 20.2652 25 20 25ZM27 17H24C23.7348 17 23.4804 17.1054 23.2929 17.2929C23.1054 17.4804 23 17.7348 23 18C23 18.2652 23.1054 18.5196 23.2929 18.7071C23.4804 18.8946 23.7348 19 24 19H27C27.7956 19 28.5587 19.3161 29.1213 19.8787C29.6839 20.4413 30 21.2044 30 22C30 22.7956 29.6839 23.5587 29.1213 24.1213C28.5587 24.6839 27.7956 25 27 25H24C23.7348 25 23.4804 25.1054 23.2929 25.2929C23.1054 25.4804 23 25.7348 23 26C23 26.2652 23.1054 26.5196 23.2929 26.7071C23.4804 26.8946 23.7348 27 24 27H27C28.3261 27 29.5979 26.4732 30.5355 25.5355C31.4732 24.5979 32 23.3261 32 22C32 20.6739 31.4732 19.4021 30.5355 18.4645C29.5979 17.5268 28.3261 17 27 17Z" fill="black"/>
</svg>
