<svg width="44" height="44" viewBox="0 0 44 44" fill="none" xmlns="http://www.w3.org/2000/svg">
<rect width="44" height="44" rx="22" fill="#FDFDFD"/>
<path fill-rule="evenodd" clip-rule="evenodd" d="M30 15H14C13.4477 15 13 15.4477 13 16V28C13 28.5523 13.4477 29 14 29H30C30.5523 29 31 28.5523 31 28V16C31 15.4477 30.5523 15 30 15ZM14 13C12.3431 13 11 14.3431 11 16V28C11 29.6569 12.3431 31 14 31H30C31.6569 31 33 29.6569 33 28V16C33 14.3431 31.6569 13 30 13H14Z" fill="#08080C"/>
<path fill-rule="evenodd" clip-rule="evenodd" d="M15.2318 17.3598C15.5854 16.9356 16.2159 16.8782 16.6402 17.2318L21.3598 21.1648C21.7307 21.4739 22.2694 21.4739 22.6402 21.1648L27.3598 17.2318C27.7841 16.8782 28.4147 16.9356 28.7682 17.3598C29.1218 17.7841 29.0645 18.4147 28.6402 18.7682L23.9206 22.7013C22.808 23.6284 21.192 23.6284 20.0795 22.7013L15.3598 18.7682C14.9356 18.4147 14.8782 17.7841 15.2318 17.3598Z" fill="#08080C"/>
</svg>
