<svg width="17" height="16" viewBox="0 0 17 16" fill="none" xmlns="http://www.w3.org/2000/svg">
<path d="M14.1667 9.33335C13.9899 9.33335 13.8203 9.40358 13.6953 9.52861C13.5702 9.65363 13.5 9.8232 13.5 10V12.6667C13.5 12.8435 13.4298 13.0131 13.3047 13.1381C13.1797 13.2631 13.0101 13.3333 12.8333 13.3333H3.5C3.32319 13.3333 3.15362 13.2631 3.0286 13.1381C2.90357 13.0131 2.83333 12.8435 2.83333 12.6667V6.27335L6.75333 10.2C7.12833 10.5745 7.63666 10.7849 8.16667 10.7849C8.69667 10.7849 9.205 10.5745 9.58 10.2L10.6733 9.10668C10.7989 8.98114 10.8694 8.81088 10.8694 8.63335C10.8694 8.45581 10.7989 8.28555 10.6733 8.16001C10.5478 8.03448 10.3775 7.96395 10.2 7.96395C10.0225 7.96395 9.8522 8.03448 9.72667 8.16001L8.63333 9.25335C8.50871 9.3755 8.34117 9.44392 8.16667 9.44392C7.99216 9.44392 7.82462 9.3755 7.7 9.25335L3.77333 5.33335H8.16667C8.34348 5.33335 8.51305 5.26311 8.63807 5.13808C8.76309 5.01306 8.83333 4.84349 8.83333 4.66668C8.83333 4.48987 8.76309 4.3203 8.63807 4.19527C8.51305 4.07025 8.34348 4.00001 8.16667 4.00001H3.5C2.96957 4.00001 2.46086 4.21073 2.08579 4.5858C1.71071 4.96087 1.5 5.46958 1.5 6.00001V12.6667C1.5 13.1971 1.71071 13.7058 2.08579 14.0809C2.46086 14.456 2.96957 14.6667 3.5 14.6667H12.8333C13.3638 14.6667 13.8725 14.456 14.2475 14.0809C14.6226 13.7058 14.8333 13.1971 14.8333 12.6667V10C14.8333 9.8232 14.7631 9.65363 14.6381 9.52861C14.513 9.40358 14.3435 9.33335 14.1667 9.33335ZM15.3067 3.52668L13.3067 1.52668C13.2433 1.46599 13.1685 1.41841 13.0867 1.38668C12.9244 1.32 12.7423 1.32 12.58 1.38668C12.4982 1.41841 12.4234 1.46599 12.36 1.52668L10.36 3.52668C10.2345 3.65221 10.1639 3.82248 10.1639 4.00001C10.1639 4.17755 10.2345 4.34781 10.36 4.47335C10.4855 4.59888 10.6558 4.66941 10.8333 4.66941C11.0109 4.66941 11.1811 4.59888 11.3067 4.47335L12.1667 3.60668V7.33335C12.1667 7.51016 12.2369 7.67973 12.3619 7.80475C12.487 7.92977 12.6565 8.00001 12.8333 8.00001C13.0101 8.00001 13.1797 7.92977 13.3047 7.80475C13.4298 7.67973 13.5 7.51016 13.5 7.33335V3.60668L14.36 4.47335C14.422 4.53583 14.4957 4.58543 14.5769 4.61927C14.6582 4.65312 14.7453 4.67054 14.8333 4.67054C14.9213 4.67054 15.0085 4.65312 15.0897 4.61927C15.171 4.58543 15.2447 4.53583 15.3067 4.47335C15.3692 4.41137 15.4187 4.33764 15.4526 4.2564C15.4864 4.17516 15.5039 4.08802 15.5039 4.00001C15.5039 3.912 15.4864 3.82487 15.4526 3.74363C15.4187 3.66239 15.3692 3.58865 15.3067 3.52668Z" fill="#08080C"/>
</svg>
