<svg width="24" height="24" viewBox="0 0 24 24" fill="none" xmlns="http://www.w3.org/2000/svg">
<path fill-rule="evenodd" clip-rule="evenodd" d="M3.18099 13.9998C1.52727 14.0045 0.459758 15.8884 1.47855 17.3157C2.93757 19.3596 5.58333 21 10.0003 21C16.8454 21 22.34 15.4217 21.5708 8.8311L22.6977 6.5773C23.4792 5.01428 22.1212 3.23622 20.4076 3.57894L18.9188 3.87669C18.5241 3.66843 18.1156 3.51127 17.7665 3.39741C17.0861 3.17552 16.2626 3 15.5003 3C14.131 3 12.9492 3.35131 12.01 4.05593C11.0815 4.75264 10.5585 5.66825 10.2715 6.50905C10.1392 6.89661 10.0511 7.28534 9.99462 7.65843C9.46335 7.49123 8.92164 7.26626 8.39129 6.99155C7.1881 6.36832 6.21514 5.57822 5.66629 4.88551C4.74546 3.7233 2.79402 3.80947 2.10924 5.32021C1.1441 7.44947 1.40885 9.97346 2.27639 12.0129C2.56717 12.6964 2.94542 13.3721 3.40753 13.9983C3.32842 13.9992 3.25274 13.9996 3.18099 13.9998ZM10.0002 19C6.13691 19 4.13923 17.6007 3.10628 16.1537C3.05987 16.0887 3.10667 16 3.18654 15.9998C4.23738 15.9968 6.39438 15.9471 7.81698 15.1145C7.89055 15.0714 7.87436 14.9629 7.79356 14.9358C4.47739 13.8208 2.59236 9.09859 3.93074 6.1459C3.96143 6.0782 4.05243 6.06927 4.0986 6.12754C5.62747 8.05718 8.97027 9.9472 11.8786 9.99891C11.9417 10 11.9894 9.9427 11.9798 9.88033C11.8626 9.12053 11.4151 5 15.5002 5C16.4757 5 17.9271 5.47583 18.4617 5.9633C18.4864 5.98583 18.5199 5.99606 18.5527 5.9895L20.7997 5.5401C20.8813 5.52378 20.946 5.60845 20.9088 5.68288L19.5151 8.47019C19.5054 8.48954 19.5024 8.51175 19.5061 8.53306C20.4822 14.02 15.9882 19 10.0002 19Z" fill="#F9F9FB"/>
</svg>
